<?xml version="1.0" standalone="no"?>
<!DOCTYPE svg PUBLIC "-//W3C//DTD SVG 20010904//EN"
 "http://www.w3.org/TR/2001/REC-SVG-20010904/DTD/svg10.dtd">
<svg version="1.0" xmlns="http://www.w3.org/2000/svg"
 width="700.000000pt" height="700.000000pt" viewBox="0 0 700.000000 700.000000"
 preserveAspectRatio="xMidYMid meet">
<metadata>
Created by potrace 1.11, written by Peter Selinger 2001-2013
</metadata>
<g transform="translate(0.000000,700.000000) scale(0.100000,-0.100000)"
fill="#000000" stroke="none">
<path d="M4108 5875 c-2 -1 -32 -5 -68 -9 -278 -27 -522 -99 -780 -228 -166
-83 -198 -103 -340 -206 -424 -311 -747 -790 -875 -1302 -53 -208 -70 -355
-70 -595 0 -362 60 -638 212 -978 130 -292 381 -622 618 -812 27 -22 59 -48
70 -58 40 -36 242 -166 335 -215 156 -83 399 -175 519 -198 7 -1 34 -8 60 -14
79 -18 170 -33 281 -45 56 -6 341 -6 395 0 120 13 152 17 223 30 136 25 351
86 437 125 179 81 394 194 415 219 3 3 28 21 55 40 134 93 356 297 435 401 19
25 37 47 41 50 3 3 30 39 61 80 158 217 287 483 358 740 18 62 33 122 36 134
2 11 8 44 13 71 41 210 49 566 17 774 -119 781 -588 1428 -1281 1767 -137 66
-376 155 -450 167 -16 3 -48 9 -70 15 -101 27 -271 45 -452 47 -105 2 -193 2
-195 0z"/>
<path d="M1015 2913 c-56 -11 -162 -37 -175 -44 -8 -4 -35 -15 -60 -25 -166
-69 -347 -251 -425 -428 -86 -195 -95 -449 -22 -650 53 -143 168 -299 293
-394 203 -155 499 -205 749 -126 269 85 477 300 561 579 23 76 27 110 28 220
1 141 -5 188 -36 280 -95 288 -335 511 -618 575 -54 12 -255 21 -295 13z"/>
</g>
</svg>
